<?xml version="1.0" standalone="no"?><!DOCTYPE svg PUBLIC "-//W3C//DTD SVG 1.1//EN" "http://www.w3.org/Graphics/SVG/1.1/DTD/svg11.dtd"><svg t="1624618236168" class="icon" viewBox="0 0 1024 1024" version="1.1" xmlns="http://www.w3.org/2000/svg" p-id="4407" xmlns:xlink="http://www.w3.org/1999/xlink" width="32" height="32"><defs><style type="text/css"></style></defs><path d="M614.4 921.6h-204.8V136.533333h-68.266667v853.333334h341.333334V136.533333h-68.266667v785.066667zM546.133333 34.133333h-68.266666v819.2h68.266666V34.133333z m361.813334 672.426667a33.9968 33.9968 0 0 0-35.84-3.072c-11.605333 5.461333-18.773333 17.408-18.773334 30.378667v17.066666h-102.4v68.266667h102.4v17.066667c0 12.970667 7.168 24.917333 18.773334 30.378666 4.778667 2.730667 10.24 3.754667 15.36 3.754667 7.168 0 14.336-2.389333 20.48-6.826667l68.266666-51.2c8.533333-6.485333 13.653333-16.725333 13.653334-27.306666s-5.12-20.821333-13.653334-27.306667l-68.266666-51.2zM170.666667 733.866667c0-12.970667-7.168-24.917333-18.773334-30.378667A30.993067 30.993067 0 0 0 136.533333 699.733333c-7.168 0-14.336 2.389333-20.48 6.826667l-68.266666 51.2c-8.533333 6.485333-13.653333 16.725333-13.653334 27.306667s5.12 20.821333 13.653334 27.306666l68.266666 51.2c10.24 7.850667 24.234667 8.874667 35.84 3.072 11.605333-5.461333 18.773333-17.408 18.773334-30.378666V819.2h102.4v-68.266667H170.666667v-17.066666z m682.666666-136.533334c0 12.970667 7.168 24.917333 18.773334 30.378667 4.778667 2.730667 10.24 3.754667 15.36 3.754667 7.168 0 14.336-2.389333 20.48-6.826667l68.266666-51.2c8.533333-6.485333 13.653333-16.725333 13.653334-27.306667s-5.12-20.821333-13.653334-27.306666l-68.266666-51.2a33.9968 33.9968 0 0 0-35.84-3.072c-11.605333 5.461333-18.773333 17.408-18.773334 30.378666v17.066667h-102.4v68.266667h102.4v17.066666z m-682.666666-102.4c0-12.970667-7.168-24.917333-18.773334-30.378666A30.993067 30.993067 0 0 0 136.533333 460.8c-7.168 0-14.336 2.389333-20.48 6.826667l-68.266666 51.2c-8.533333 6.485333-13.653333 16.725333-13.653334 27.306666s5.12 20.821333 13.653334 27.306667l68.266666 51.2c10.24 7.850667 24.234667 8.874667 35.84 3.072 11.605333-5.461333 18.773333-17.408 18.773334-30.378667V580.266667h102.4v-68.266667H170.666667v-17.066667z" p-id="4408" fill="#13fdf6"></path></svg>