<svg version="1.1" id="图层_1" xmlns="http://www.w3.org/2000/svg" xmlns:xlink="http://www.w3.org/1999/xlink" viewBox="0 0 64 64" xml:space="preserve">
    <style>
        @keyframes wave{0%{stroke-dasharray:0 140px}to{stroke-dasharray:140px 0}}@keyframes light{0%,to{opacity:0}10%,90%{opacity:1}}
    </style>
    <path fill="#fad587" d="M54,4H10C7.8,4,6,5.8,6,8v48c0,2.2,1.8,4,4,4h44c2.2,0,4-1.8,4-4V8C58,5.8,56.2,4,54,4z M10,56V8h44l0,48H10z"/>
    <path fill="#fad587" d="M12,40h40V10H12V40z M16,14h32v22H16V14z"/>
    <polyline fill="none" stroke="#00fffd" stroke-width="2" stroke-linecap="round" stroke-linejoin="round" stroke-miterlimit="10" points="45.2,25.8 34.2,25.8 32,31.5 28.5,18.7 25.5,25.8 19,25.8 " style="animation:wave 2s ease-in infinite"/>
    <circle fill="#ed1c24" cx="20.2" cy="47" r="2" style="animation:light 4s linear 0s infinite"/>
    <circle fill="#fff200" cx="28.2" cy="47" r="2" style="animation:light 4s linear 1s infinite"/>
    <circle fill="#22b14c" cx="36" cy="47" r="2" style="animation:light 4s linear 2s infinite"/>
    <circle fill="#00a2e8" cx="44" cy="47" r="2" style="animation:light 4s linear 3s infinite"/>
</svg>
